<mxfile host="app.diagrams.net" modified="2022-09-10T12:46:49.079Z" agent="5.0 (Windows NT 10.0; Win64; x64) AppleWebKit/537.36 (KHTML, like Gecko) Chrome/104.0.0.0 Safari/537.36" etag="enc2fBXTB-2EXlvsr3Yi" version="20.3.0" type="github">
  <diagram id="o_9UratccnNTIB895HP3" name="Page-1">
    <mxGraphModel dx="868" dy="450" grid="1" gridSize="10" guides="1" tooltips="1" connect="1" arrows="1" fold="1" page="1" pageScale="1" pageWidth="850" pageHeight="1100" math="0" shadow="0">
      <root>
        <mxCell id="0" />
        <mxCell id="1" parent="0" />
        <mxCell id="fh2ef5qrdviW-wOhZryx-2" value="&lt;font style=&quot;vertical-align: inherit;&quot;&gt;&lt;font style=&quot;vertical-align: inherit;&quot;&gt;&lt;b&gt;Penan Laskettelukeskus&lt;/b&gt;&lt;/font&gt;&lt;/font&gt;" style="rounded=0;whiteSpace=wrap;html=1;fillColor=#f5f5f5;fontColor=#333333;strokeColor=#666666;" parent="1" vertex="1">
          <mxGeometry x="160" width="120" height="40" as="geometry" />
        </mxCell>
        <mxCell id="fh2ef5qrdviW-wOhZryx-3" value="&lt;font style=&quot;vertical-align: inherit;&quot;&gt;&lt;font style=&quot;vertical-align: inherit;&quot;&gt;&lt;b&gt;Yhtiöjohto&lt;/b&gt;&lt;/font&gt;&lt;/font&gt;" style="rounded=1;whiteSpace=wrap;html=1;fillColor=#d5e8d4;strokeColor=#82b366;" parent="1" vertex="1">
          <mxGeometry x="160" y="50" width="120" height="40" as="geometry" />
        </mxCell>
        <mxCell id="fh2ef5qrdviW-wOhZryx-4" value="&lt;font style=&quot;vertical-align: inherit;&quot;&gt;&lt;font style=&quot;vertical-align: inherit;&quot;&gt;&lt;b&gt;Talousosasto&lt;/b&gt;&lt;/font&gt;&lt;/font&gt;" style="rounded=1;whiteSpace=wrap;html=1;fillColor=#d5e8d4;strokeColor=#82b366;" parent="1" vertex="1">
          <mxGeometry x="160" y="100" width="120" height="40" as="geometry" />
        </mxCell>
        <mxCell id="fh2ef5qrdviW-wOhZryx-5" value="&lt;b&gt;Konserni talous&lt;/b&gt;" style="rounded=1;whiteSpace=wrap;html=1;fillColor=#d5e8d4;strokeColor=#82b366;" parent="1" vertex="1">
          <mxGeometry x="160" y="145" width="120" height="40" as="geometry" />
        </mxCell>
        <mxCell id="wKo-8l9Y7tnVMGqr3Hxs-3" value="Myyjä" style="rounded=1;whiteSpace=wrap;html=1;fontSize=12;glass=0;strokeWidth=1;shadow=0;" vertex="1" parent="1">
          <mxGeometry x="340" y="460" width="120" height="40" as="geometry" />
        </mxCell>
        <mxCell id="wKo-8l9Y7tnVMGqr3Hxs-4" value="Huoltomies" style="rounded=1;whiteSpace=wrap;html=1;fontSize=12;glass=0;strokeWidth=1;shadow=0;" vertex="1" parent="1">
          <mxGeometry x="470" y="460" width="120" height="40" as="geometry" />
        </mxCell>
        <mxCell id="wKo-8l9Y7tnVMGqr3Hxs-5" value="&lt;b&gt;Käyttäjät&lt;/b&gt;" style="rounded=0;whiteSpace=wrap;html=1;" vertex="1" parent="1">
          <mxGeometry x="610" y="430" width="120" height="30" as="geometry" />
        </mxCell>
        <mxCell id="wKo-8l9Y7tnVMGqr3Hxs-6" value="&lt;b&gt;Raportit&lt;/b&gt;" style="ellipse;whiteSpace=wrap;html=1;" vertex="1" parent="1">
          <mxGeometry x="422.5" y="250" width="140" height="40" as="geometry" />
        </mxCell>
        <mxCell id="wKo-8l9Y7tnVMGqr3Hxs-7" value="&lt;b&gt;Myyntitapahtumat&lt;/b&gt;" style="rounded=0;whiteSpace=wrap;html=1;" vertex="1" parent="1">
          <mxGeometry x="570" y="150" width="120" height="30" as="geometry" />
        </mxCell>
        <mxCell id="wKo-8l9Y7tnVMGqr3Hxs-8" value="&lt;b&gt;Tuotteet&lt;/b&gt;" style="ellipse;whiteSpace=wrap;html=1;" vertex="1" parent="1">
          <mxGeometry x="562.5" y="260" width="140" height="40" as="geometry" />
        </mxCell>
        <mxCell id="wKo-8l9Y7tnVMGqr3Hxs-9" value="&lt;b&gt;Verkko ostot&lt;/b&gt;" style="ellipse;whiteSpace=wrap;html=1;" vertex="1" parent="1">
          <mxGeometry x="560" y="310" width="140" height="40" as="geometry" />
        </mxCell>
        <mxCell id="wKo-8l9Y7tnVMGqr3Hxs-10" value="&lt;b&gt;Alennus&lt;/b&gt;" style="ellipse;whiteSpace=wrap;html=1;" vertex="1" parent="1">
          <mxGeometry x="422.5" y="300" width="140" height="40" as="geometry" />
        </mxCell>
        <mxCell id="wKo-8l9Y7tnVMGqr3Hxs-11" value="&lt;b&gt;Yhteydet&lt;/b&gt;" style="rounded=0;whiteSpace=wrap;html=1;" vertex="1" parent="1">
          <mxGeometry x="430" y="30" width="110" height="30" as="geometry" />
        </mxCell>
        <mxCell id="wKo-8l9Y7tnVMGqr3Hxs-18" value="&lt;b&gt;Asiakas&lt;/b&gt;" style="rounded=0;whiteSpace=wrap;html=1;" vertex="1" parent="1">
          <mxGeometry x="620" y="30" width="120" height="30" as="geometry" />
        </mxCell>
        <mxCell id="wKo-8l9Y7tnVMGqr3Hxs-21" value="&lt;b style=&quot;background-color: initial;&quot;&gt;&lt;font style=&quot;vertical-align: inherit;&quot;&gt;&lt;font style=&quot;vertical-align: inherit;&quot;&gt;Yritysryppään johto&lt;/font&gt;&lt;/font&gt;&lt;/b&gt;" style="rounded=1;whiteSpace=wrap;html=1;fillColor=#d5e8d4;strokeColor=#82b366;" vertex="1" parent="1">
          <mxGeometry x="160" y="200" width="120" height="40" as="geometry" />
        </mxCell>
        <mxCell id="wKo-8l9Y7tnVMGqr3Hxs-22" value="&lt;font style=&quot;vertical-align: inherit;&quot;&gt;&lt;font style=&quot;vertical-align: inherit;&quot;&gt;&lt;font style=&quot;vertical-align: inherit;&quot;&gt;&lt;font style=&quot;vertical-align: inherit;&quot;&gt;&lt;b&gt;Hotelli&lt;/b&gt;&lt;/font&gt;&lt;/font&gt;&lt;/font&gt;&lt;/font&gt;" style="rounded=1;whiteSpace=wrap;html=1;fillColor=#d5e8d4;strokeColor=#82b366;" vertex="1" parent="1">
          <mxGeometry x="160" y="250" width="120" height="40" as="geometry" />
        </mxCell>
        <mxCell id="wKo-8l9Y7tnVMGqr3Hxs-23" value="&lt;font style=&quot;vertical-align: inherit; font-size: 15px;&quot;&gt;&lt;font style=&quot;vertical-align: inherit; font-size: 15px;&quot;&gt;&lt;font style=&quot;vertical-align: inherit; font-size: 15px;&quot;&gt;&lt;font style=&quot;vertical-align: inherit; font-size: 15px;&quot;&gt;Käsite kartta:&lt;/font&gt;&lt;/font&gt;&lt;/font&gt;&lt;/font&gt;" style="text;html=1;align=center;verticalAlign=middle;resizable=0;points=[];autosize=1;strokeColor=#d6b656;fillColor=#fff2cc;" vertex="1" parent="1">
          <mxGeometry y="5" width="110" height="30" as="geometry" />
        </mxCell>
        <mxCell id="wKo-8l9Y7tnVMGqr3Hxs-25" value="" style="endArrow=none;html=1;rounded=0;fontSize=15;exitX=0.5;exitY=0;exitDx=0;exitDy=0;" edge="1" parent="1" source="fh2ef5qrdviW-wOhZryx-3">
          <mxGeometry width="50" height="50" relative="1" as="geometry">
            <mxPoint x="170" y="90" as="sourcePoint" />
            <mxPoint x="220" y="40" as="targetPoint" />
          </mxGeometry>
        </mxCell>
        <mxCell id="wKo-8l9Y7tnVMGqr3Hxs-26" value="" style="endArrow=none;html=1;rounded=0;fontSize=15;exitX=0.5;exitY=0;exitDx=0;exitDy=0;entryX=0.5;entryY=1;entryDx=0;entryDy=0;" edge="1" parent="1" source="fh2ef5qrdviW-wOhZryx-4" target="fh2ef5qrdviW-wOhZryx-3">
          <mxGeometry width="50" height="50" relative="1" as="geometry">
            <mxPoint x="170" y="150" as="sourcePoint" />
            <mxPoint x="220" y="100" as="targetPoint" />
          </mxGeometry>
        </mxCell>
        <mxCell id="wKo-8l9Y7tnVMGqr3Hxs-27" value="" style="endArrow=none;html=1;rounded=0;fontSize=15;exitX=0.5;exitY=0;exitDx=0;exitDy=0;" edge="1" parent="1" source="fh2ef5qrdviW-wOhZryx-5" target="fh2ef5qrdviW-wOhZryx-4">
          <mxGeometry width="50" height="50" relative="1" as="geometry">
            <mxPoint x="170" y="210" as="sourcePoint" />
            <mxPoint x="220" y="160" as="targetPoint" />
          </mxGeometry>
        </mxCell>
        <mxCell id="wKo-8l9Y7tnVMGqr3Hxs-28" value="" style="endArrow=none;html=1;rounded=0;fontSize=15;exitX=0.5;exitY=0;exitDx=0;exitDy=0;entryX=0.5;entryY=1;entryDx=0;entryDy=0;" edge="1" parent="1" source="wKo-8l9Y7tnVMGqr3Hxs-21" target="fh2ef5qrdviW-wOhZryx-5">
          <mxGeometry width="50" height="50" relative="1" as="geometry">
            <mxPoint x="170" y="240" as="sourcePoint" />
            <mxPoint x="220" y="190" as="targetPoint" />
          </mxGeometry>
        </mxCell>
        <mxCell id="wKo-8l9Y7tnVMGqr3Hxs-29" value="" style="endArrow=none;html=1;rounded=0;fontSize=15;exitX=0.5;exitY=0;exitDx=0;exitDy=0;" edge="1" parent="1" source="wKo-8l9Y7tnVMGqr3Hxs-22" target="wKo-8l9Y7tnVMGqr3Hxs-21">
          <mxGeometry width="50" height="50" relative="1" as="geometry">
            <mxPoint x="170" y="310" as="sourcePoint" />
            <mxPoint x="220" y="260" as="targetPoint" />
          </mxGeometry>
        </mxCell>
      </root>
    </mxGraphModel>
  </diagram>
</mxfile>
